<mxfile host="app.diagrams.net" agent="Mozilla/5.0 (Windows NT 10.0; Win64; x64) AppleWebKit/537.36 (KHTML, like Gecko) Chrome/140.0.0.0 Safari/537.36" version="26.2.12">
  <diagram name="Page-1" id="JEjgt8Y7Z-vk6pv3K9CY">
    <mxGraphModel>
      <root>
        <mxCell id="0" />
        <mxCell id="1" parent="0" />
        <mxCell id="2" value="External System" style="whiteSpace=wrap;strokeWidth=2;verticalAlign=top;" vertex="1" parent="1">
          <mxGeometry x="8" y="160" width="219" height="281" as="geometry" />
        </mxCell>
        <mxCell id="3" value="External API" style="whiteSpace=wrap;strokeWidth=2;" vertex="1" parent="2">
          <mxGeometry x="44" y="46" width="146" height="54" as="geometry" />
        </mxCell>
        <mxCell id="4" value="Data Service" style="whiteSpace=wrap;strokeWidth=2;" vertex="1" parent="2">
          <mxGeometry x="43" y="197" width="149" height="54" as="geometry" />
        </mxCell>
        <mxCell id="5" value="Provides data" style="curved=1;startArrow=none;endArrow=block;exitX=0.51;exitY=0.99;entryX=0.5;entryY=0;" edge="1" parent="2" source="3" target="4">
          <mxGeometry relative="1" as="geometry">
            <Array as="points" />
          </mxGeometry>
        </mxCell>
        <mxCell id="6" value="Software System" style="whiteSpace=wrap;strokeWidth=2;verticalAlign=top;" vertex="1" parent="1">
          <mxGeometry x="277" y="8" width="196" height="584" as="geometry" />
        </mxCell>
        <mxCell id="7" value="Module 1" style="whiteSpace=wrap;strokeWidth=2;" vertex="1" parent="6">
          <mxGeometry x="44" y="46" width="124" height="54" as="geometry" />
        </mxCell>
        <mxCell id="8" value="Module 2" style="whiteSpace=wrap;strokeWidth=2;" vertex="1" parent="6">
          <mxGeometry x="44" y="197" width="124" height="54" as="geometry" />
        </mxCell>
        <mxCell id="9" value="Module 3" style="whiteSpace=wrap;strokeWidth=2;" vertex="1" parent="6">
          <mxGeometry x="44" y="349" width="124" height="54" as="geometry" />
        </mxCell>
        <mxCell id="10" value="Database" style="whiteSpace=wrap;strokeWidth=2;" vertex="1" parent="6">
          <mxGeometry x="43" y="500" width="126" height="54" as="geometry" />
        </mxCell>
        <mxCell id="11" value="Uses" style="curved=1;startArrow=none;endArrow=block;exitX=0.5;exitY=0.99;entryX=0.5;entryY=0;" edge="1" parent="6" source="7" target="8">
          <mxGeometry relative="1" as="geometry">
            <Array as="points" />
          </mxGeometry>
        </mxCell>
        <mxCell id="12" value="Interacts with" style="curved=1;startArrow=none;endArrow=block;exitX=0.5;exitY=1;entryX=0.5;entryY=-0.01;" edge="1" parent="6" source="8" target="9">
          <mxGeometry relative="1" as="geometry">
            <Array as="points" />
          </mxGeometry>
        </mxCell>
        <mxCell id="13" value="Communicates with" style="curved=1;startArrow=none;endArrow=block;exitX=0.5;exitY=0.99;entryX=0.5;entryY=0;" edge="1" parent="6" source="9" target="10">
          <mxGeometry relative="1" as="geometry">
            <Array as="points" />
          </mxGeometry>
        </mxCell>
        <mxCell id="14" value="User" style="whiteSpace=wrap;strokeWidth=2;" vertex="1" parent="1">
          <mxGeometry x="523" y="273" width="92" height="54" as="geometry" />
        </mxCell>
        <mxCell id="15" value="Software System" style="whiteSpace=wrap;strokeWidth=2;" vertex="1" parent="1">
          <mxGeometry x="392" y="664" width="179" height="54" as="geometry" />
        </mxCell>
        <mxCell id="16" value="External System" style="whiteSpace=wrap;strokeWidth=2;" vertex="1" parent="1">
          <mxGeometry x="394" y="791" width="175" height="54" as="geometry" />
        </mxCell>
        <mxCell id="17" value="Interacts with" style="curved=1;startArrow=none;endArrow=block;exitX=0.21;exitY=1;entryX=0;entryY=0.06;" edge="1" parent="1" source="14" target="15">
          <mxGeometry relative="1" as="geometry">
            <Array as="points">
              <mxPoint x="246" y="628" />
            </Array>
          </mxGeometry>
        </mxCell>
        <mxCell id="18" value="Requests data from" style="curved=1;startArrow=none;endArrow=block;exitX=0.15;exitY=1.01;entryX=0.14;entryY=0;" edge="1" parent="1" source="15" target="16">
          <mxGeometry relative="1" as="geometry">
            <Array as="points">
              <mxPoint x="333" y="755" />
            </Array>
          </mxGeometry>
        </mxCell>
        <mxCell id="19" value="Returns data to" style="curved=1;startArrow=none;endArrow=block;exitX=0.5;exitY=0;entryX=0.5;entryY=1.01;" edge="1" parent="1" source="16" target="15">
          <mxGeometry relative="1" as="geometry">
            <Array as="points" />
          </mxGeometry>
        </mxCell>
        <mxCell id="20" value="Sends results back to" style="curved=1;startArrow=none;endArrow=block;exitX=0.92;exitY=0.01;entryX=0.58;entryY=1;" edge="1" parent="1" source="15" target="14">
          <mxGeometry relative="1" as="geometry">
            <Array as="points">
              <mxPoint x="656" y="628" />
            </Array>
          </mxGeometry>
        </mxCell>
        <mxCell id="21" value="Provides feedback to" style="curved=1;startArrow=none;endArrow=block;exitX=0.42;exitY=1;entryX=0.5;entryY=0.01;" edge="1" parent="1" source="14" target="15">
          <mxGeometry relative="1" as="geometry">
            <Array as="points">
              <mxPoint x="482" y="628" />
            </Array>
          </mxGeometry>
        </mxCell>
      </root>
    </mxGraphModel>
  </diagram>
</mxfile>
